<svg width="18" height="18" viewBox="0 0 18 18" fill="none" xmlns="http://www.w3.org/2000/svg">
<path d="M0.666667 0.866657C0.666667 0.7562 0.75621 0.666656 0.866667 0.666656H17.1333C17.2438 0.666656 17.3333 0.7562 17.3333 0.866656V17.1333C17.3333 17.2438 17.2438 17.3333 17.1333 17.3333H0.866667C0.75621 17.3333 0.666667 17.2438 0.666667 17.1333V0.866657Z" fill="#04050C"/>
<path d="M9.74349 5.9466C9.52214 5.9466 9.32465 6.01605 9.15104 6.15494C8.97743 6.28949 8.83203 6.48697 8.71485 6.74739C8.59766 7.00346 8.50868 7.31596 8.44792 7.68489C8.38715 8.05381 8.35677 8.47048 8.35677 8.93489C8.35677 9.57725 8.41103 10.1133 8.51953 10.543C8.63238 10.9726 8.79948 11.2938 9.02083 11.5065C9.24219 11.7192 9.51997 11.8255 9.85417 11.8255C10.1623 11.8255 10.4575 11.7669 10.7396 11.6497C10.9249 11.5739 11.1101 11.4882 11.2954 11.3924C11.4321 11.3217 11.599 11.4186 11.599 11.5725V13.1432C11.599 13.2142 11.5615 13.2802 11.4991 13.3141C11.2232 13.464 10.9267 13.5776 10.6094 13.6549C10.2578 13.7417 9.88455 13.7851 9.48958 13.7851C8.73438 13.7851 8.09636 13.5985 7.57552 13.2253C7.05903 12.852 6.66623 12.3029 6.39714 11.5781C6.13238 10.8533 6 9.96787 6 8.92187C6 8.18836 6.0803 7.51996 6.24089 6.91666C6.40582 6.31336 6.64236 5.79469 6.95052 5.36067C7.25868 4.92664 7.62978 4.59244 8.0638 4.35806C8.50217 4.11935 8.99696 3.99999 9.54818 3.99999C9.96919 3.99999 10.3728 4.05424 10.7591 4.16275C11.1031 4.25831 11.4438 4.401 11.7811 4.59081C11.862 4.63634 11.8979 4.73302 11.8695 4.82139L11.4024 6.27324C11.3611 6.40178 11.2068 6.45313 11.0918 6.38232C10.9147 6.27326 10.7365 6.18228 10.5573 6.10936C10.3012 6.00086 10.0299 5.9466 9.74349 5.9466Z" fill="#F4F4F2"/>
</svg>
